<svg xmlns="http://www.w3.org/2000/svg" viewBox="0 0 512 512" width="512" height="512">
	<defs>
		<linearGradient id="grd1" gradientUnits="userSpaceOnUse"  x1="255.813" y1="475.082" x2="255.813" y2="36.545">
			<stop offset="0" stop-color="#af75c2"  />
			<stop offset="1" stop-color="#e06385"  />
		</linearGradient>
	</defs>
	<style>
		tspan { white-space:pre }
		.shp0 { fill: url(#grd1) } 
	</style>
	<g id="Layer">
		<path id="Layer" fill-rule="evenodd" class="shp0" d="M511.63 170.16C511.63 212.22 489.83 255.05 446.25 298.63L268.38 469.94C264.95 473.36 260.76 475.08 255.81 475.08C250.86 475.08 246.68 473.36 243.25 469.94L65.1 298.06C63.19 296.54 60.58 294.06 57.25 290.64C53.92 287.21 48.63 280.98 41.4 271.94C34.17 262.9 27.69 253.62 21.99 244.1C16.28 234.59 11.18 223.07 6.71 209.56C2.24 196.05 0 182.91 0 170.16C0 128.29 12.09 95.55 36.26 71.95C60.43 48.35 93.83 36.54 136.47 36.54C148.27 36.54 160.31 38.59 172.59 42.68C184.86 46.77 196.28 52.29 206.85 59.24C217.41 66.19 226.5 72.71 234.11 78.8C241.73 84.89 248.96 91.36 255.81 98.21C262.66 91.36 269.9 84.89 277.51 78.8C285.13 72.71 294.21 66.19 304.78 59.24C315.33 52.3 326.75 46.77 339.03 42.68C351.31 38.59 363.35 36.54 375.15 36.54C417.79 36.54 451.19 48.34 475.37 71.95C499.54 95.55 511.63 128.28 511.63 170.16ZM475.08 170.16C475.08 154.74 473.03 141.13 468.95 129.33C464.85 117.53 459.62 108.16 453.24 101.21C446.87 94.26 439.11 88.6 429.98 84.22C420.84 79.84 411.89 76.89 403.14 75.37C394.38 73.85 385.06 73.09 375.16 73.09C365.26 73.09 354.6 75.51 343.18 80.37C331.76 85.22 321.24 91.31 311.63 98.64C302.02 105.97 293.79 112.82 286.93 119.2C280.08 125.57 274.37 131.42 269.8 136.75C266.38 140.94 261.71 143.04 255.81 143.04C249.92 143.04 245.25 140.94 241.82 136.75C237.26 131.43 231.55 125.58 224.7 119.2C217.84 112.82 209.61 105.97 200 98.64C190.39 91.31 179.87 85.22 168.45 80.37C157.03 75.51 146.37 73.09 136.47 73.09C126.58 73.09 117.25 73.85 108.5 75.37C99.74 76.89 90.8 79.84 81.66 84.22C72.52 88.6 64.77 94.26 58.39 101.21C52.01 108.16 46.78 117.53 42.69 129.33C38.6 141.13 36.55 154.74 36.55 170.16C36.55 202.13 54.34 235.92 89.94 271.51L255.81 431.39L421.4 271.8C457.19 236.02 475.08 202.13 475.08 170.16Z" />
	</g>
	<g id="Layer">
	</g>
	<g id="Layer">
	</g>
	<g id="Layer">
	</g>
	<g id="Layer">
	</g>
	<g id="Layer">
	</g>
	<g id="Layer">
	</g>
	<g id="Layer">
	</g>
	<g id="Layer">
	</g>
	<g id="Layer">
	</g>
	<g id="Layer">
	</g>
	<g id="Layer">
	</g>
	<g id="Layer">
	</g>
	<g id="Layer">
	</g>
	<g id="Layer">
	</g>
	<g id="Layer">
	</g>
</svg>