<svg xmlns="http://www.w3.org/2000/svg" viewBox="0 0 512 512" width="512" height="512">
	<defs>
		<linearGradient id="grd1" gradientUnits="userSpaceOnUse"  x1="188.43" y1="275.182" x2="188.43" y2="0">
			<stop offset="0" stop-color="#ba6fc4"  />
			<stop offset="0.99" stop-color="#e06385"  />
		</linearGradient>
		<linearGradient id="grd2" gradientUnits="userSpaceOnUse"  x1="323.57" y1="511.999" x2="323.57" y2="236.83">
			<stop offset="0" stop-color="#ba6fc4"  />
			<stop offset="0.99" stop-color="#e06385"  />
		</linearGradient>
	</defs>
	<style>
		tspan { white-space:pre }
		.shp0 { fill: url(#grd1) } 
		.shp1 { fill: url(#grd2) } 
	</style>
	<g id="Layer">
		<path id="Layer" fill-rule="evenodd" class="shp0" d="M172.78 197.18L107.78 270.14C98.61 280.45 81.58 273.88 81.58 260.17L81.58 196.02C35.45 188.79 0.05 148.78 0.05 100.65C0.05 37.9 47.29 0 96.58 0L280.28 0C333.5 0 376.81 43.3 376.81 96.53C376.81 159.57 329.23 197.18 280.28 197.18L172.78 197.18ZM261.3 98.59C261.3 108.85 269.62 117.17 279.88 117.17C290.15 117.17 298.47 108.85 298.47 98.59C298.47 88.33 290.15 80.01 279.88 80.01C269.62 80.01 261.3 88.33 261.3 98.59ZM115.56 98.59C115.56 88.33 107.24 80.01 96.97 80.01C86.71 80.01 78.39 88.33 78.39 98.59C78.39 108.85 86.71 117.17 96.97 117.17C107.24 117.17 115.56 108.85 115.56 98.59ZM169.85 98.59C169.85 108.85 178.17 117.17 188.43 117.17C198.69 117.17 207.01 108.85 207.01 98.59C207.01 88.33 198.69 80.01 188.43 80.01C178.17 80.01 169.85 88.33 169.85 98.59Z" />
		<path id="Layer" fill-rule="evenodd" class="shp1" d="M415.42 236.83C465.3 236.83 511.95 275.44 511.95 337.48C511.95 385.61 476.55 425.62 430.42 432.85L430.42 497C430.42 510.79 413.31 517.2 404.22 506.98L339.22 434.02L231.72 434.02C181.97 434.02 135.19 395.54 135.19 333.37C135.19 280.14 178.5 236.83 231.72 236.83L415.42 236.83ZM250.7 335.42C250.7 325.16 242.38 316.84 232.12 316.84C221.85 316.84 213.53 325.16 213.53 335.42C213.53 345.69 221.85 354.01 232.12 354.01C242.38 354.01 250.7 345.69 250.7 335.42ZM342.15 335.42C342.15 325.16 333.83 316.84 323.57 316.84C313.31 316.84 304.99 325.16 304.99 335.42C304.99 345.69 313.31 354.01 323.57 354.01C333.83 354.01 342.15 345.69 342.15 335.42ZM433.61 335.42C433.61 325.16 425.29 316.84 415.03 316.84C404.76 316.84 396.44 325.16 396.44 335.42C396.44 345.69 404.76 354.01 415.03 354.01C425.29 354.01 433.61 345.69 433.61 335.42Z" />
	</g>
</svg>